<svg xmlns="http://www.w3.org/2000/svg" xmlns:xlink="http://www.w3.org/1999/xlink" viewBox="0 0 883.64 142.51"><defs><style>.a{fill:#001158;}.b{fill:url(#a);}.c{fill:url(#b);}.d{fill:none;}.e{fill:url(#c);}.f{fill:url(#d);}</style><linearGradient id="a" x1="689.51" y1="147.04" x2="861.39" y2="9.17" gradientUnits="userSpaceOnUse"><stop offset="0" stop-color="#00118c"/><stop offset="0.22" stop-color="#0020b2"/><stop offset="0.45" stop-color="#003fff"/><stop offset="0.88" stop-color="#007fff"/></linearGradient><linearGradient id="b" x1="769.09" y1="158.13" x2="810.38" y2="48.92" gradientUnits="userSpaceOnUse"><stop offset="0" stop-color="#00189e"/><stop offset="0.76" stop-color="#003fff"/><stop offset="1" stop-color="#0097ff" stop-opacity="0"/></linearGradient><linearGradient id="c" x1="953" y1="97.83" x2="772.75" y2="48.79" gradientUnits="userSpaceOnUse"><stop offset="0.53" stop-color="#35c1ff"/><stop offset="0.86" stop-color="#0045ec"/><stop offset="0.96" stop-color="#0045ec" stop-opacity="0.9"/></linearGradient><linearGradient id="d" x1="735.56" y1="47.05" x2="658.16" y2="131.2" gradientUnits="userSpaceOnUse"><stop offset="0" stop-color="#fff" stop-opacity="0.1"/><stop offset="0.86" stop-color="#fff" stop-opacity="0"/></linearGradient></defs><title>imagine-ar-tm</title><path class="a" d="M12.05,135.31c0,1.94,0,3.33-.83,4.57S8.45,142,6.09,142s-4.43-.83-5.26-2.08S0,137.25,0,135.31V57.19c0-1.94,0-3.32.83-4.57S3.6,50.54,6,50.54s4.43.84,5.26,2.08.83,2.63.83,4.57Z"/><path class="a" d="M127.84,56.92c1.8-3.61,3.32-6.51,8-6.51a5.53,5.53,0,0,1,4.57,1.8c.83,1,1.25,2.49,1.53,5.81l7.2,75.22c.14,1.38.28,3.32.28,4.15,0,2.91-1.39,4.57-5.68,4.57s-6-1.66-6.24-5l-5.67-64.68-28.12,57.9c-1.52,3.18-2.63,5.68-6.23,5.68-3.19,0-4.44-2.08-6.1-5.54L63.71,72.15,57.48,137c-.28,2.91-1.39,5-6,5-4.15,0-5.68-1.66-5.68-4.85a29.42,29.42,0,0,1,.42-3.46L54,57.75c.28-2.36.56-4.44,1.94-5.68a6.51,6.51,0,0,1,4.71-1.66c4.3,0,6,2.49,7.9,6.51L97.92,118Z"/><path class="a" d="M217,68.27,183.7,136.14c-2.11,3.51-2.89,5.84-7.21,5.82-3.87,0-5-1.5-5.33-3.44-.16-1-.11-2,.9-4l38-77.15c1.91-4,3.18-7.06,7.48-7.06s5.23,2.57,7.2,6.92l35.78,77.15a7,7,0,0,1,.83,4.14c-.34,2-1.66,3.48-5.54,3.48-4.29,0-5.42-1.8-7.34-5.82Z"/><path class="a" d="M353.27,129.36c0,4.43-1.11,6.51-8.17,9.14a63.56,63.56,0,0,1-22.44,4c-26.45,0-47.79-15.65-47.79-46.67,0-33.38,24.66-46.4,47.79-46.4A51.38,51.38,0,0,1,347,55.12c4,2.21,5.68,3.87,5.68,6.23,0,2.63-1.94,6.09-4.85,6.09-2.36,0-4.57-2.21-9.83-4.29a45.88,45.88,0,0,0-16.35-3c-16.34,0-34.35,9.28-34.35,35.18,0,24.52,16.07,36.57,35.32,36.57A44.53,44.53,0,0,0,341.22,128V112.18c0-1.94,0-3.32.83-4.57s2.77-2.08,5.13-2.08,4.43.83,5.26,2.08.83,2.63.83,4.57Z"/><path class="a" d="M398.42,135.31c0,1.94,0,3.33-.83,4.57s-2.77,2.08-5.13,2.08-4.43-.83-5.26-2.08-.83-2.63-.83-4.57V57.19c0-1.94,0-3.32.83-4.57s2.77-2.08,5.12-2.08c2.5,0,4.44.84,5.27,2.08s.83,2.63.83,4.57Z"/><path class="a" d="M448.14,135.31c0,1.94,0,3.33-.83,4.57-1.11,1.67-3.19,2.08-4.85,2.08q-3.54,0-5-2.08c-.83-1.24-.83-2.63-.83-4.57V55.53c0-3.32,1.94-5.12,5.54-5.12,4,0,5.82,2.21,8.87,6.09l50.42,63.85V57.19c0-1.94,0-3.32.83-4.57,1.1-1.66,3.18-2.08,4.84-2.08,2.36,0,4,.7,5,2.08s.83,2.63.83,4.57v79.92c0,3.19-1.8,5-5.26,5s-5.4-1.94-8.59-6l-51-64.54Z"/><path class="a" d="M562.09,90.53h29.49a7.57,7.57,0,0,1,4.44,1,5,5,0,0,1,1.8,4.29c0,2.22-.7,3.6-1.8,4.43a7.57,7.57,0,0,1-4.44,1H562.09v29.27h34.75a7.57,7.57,0,0,1,4.44,1,5.06,5.06,0,0,1,1.8,4.3c0,2.21-.7,3.6-1.8,4.43a7.57,7.57,0,0,1-4.44,1H556c-4.43,0-5.82-1.8-5.82-2.82v-78c0-7.15,1.67-8.82,5.82-8.82h40.57a7.51,7.51,0,0,1,4.43,1,5,5,0,0,1,1.8,4.3c0,2.21-.69,3.6-1.8,4.43a7.51,7.51,0,0,1-4.43,1H562.09Z"/><path class="b" d="M872.51,52.55a53.3,53.3,0,0,1-30.84,50.08l.68,1.45,14.32,26.26c2.36,5.06-2.84,10.86-8.43,10.86H825.93l-34.8-63.6H819a23.47,23.47,0,0,0,23.45-24.75c-.66-12.46-11.3-22.21-24.21-22.21H775a15.19,15.19,0,0,1-14-9.32L749.57.56h68.07C847.07.56,871.68,23.88,872.51,52.55Zm-78.88,77.79c3.21,5.95.3,10.83-6.47,10.83H739.62L762,71.6,646.25,139c-1.94-2.58-1.45-5.83.08-8.67L714.14,4.47c3.21-6,8.47-6,11.68,0Z"/><path class="c" d="M872.51,52.55a53.3,53.3,0,0,1-30.84,50.08l.68,1.45,14.32,26.26c2.36,5.06-2.84,10.86-8.43,10.86H825.93l-34.8-63.6H819a23.47,23.47,0,0,0,23.45-24.75c-.66-12.46-11.3-22.21-24.21-22.21H775a15.19,15.19,0,0,1-14-9.32L749.57.56h68.07C847.07.56,871.68,23.88,872.51,52.55Zm-78.88,77.79c3.21,5.95.3,10.83-6.47,10.83H739.62L762,71.6Z"/><path class="d" d="M854.06,125.55l-54-31.6,25.85,47.25h22.31c5.59,0,10.79-5.8,8.43-10.86Z"/><path class="d" d="M817.64.56H749.57l11.35,20.76a15.19,15.19,0,0,0,14,9.32h43.26a24.88,24.88,0,0,1,10.91,2.51l28-16A55.51,55.51,0,0,0,817.64.56Z"/><path class="e" d="M842.35,104.08l-.68-1.45a53.3,53.3,0,0,0,30.84-50.08,52.67,52.67,0,0,0-15.39-35.44l-28,16A23.38,23.38,0,0,1,819,77.6H791.13l9,16.35,54,31.6Z"/><path class="d" d="M793.63,130.34,725.82,4.47c-3.21-6-8.47-6-11.68,0L697.77,34.86,762,71.6l-22.36,69.57h47.54C793.93,141.17,796.84,136.29,793.63,130.34Z"/><path class="f" d="M646.33,130.34c-1.53,2.84-2,6.13-.08,8.67L762,71.6,697.77,34.86Z"/><path class="a" d="M871,2.19H868.6V10a1.46,1.46,0,0,1-.3,1,1,1,0,0,1-.78.32,1,1,0,0,1-.78-.33,1.38,1.38,0,0,1-.31-1V2.19h-2.37a1.23,1.23,0,0,1-.83-.25.83.83,0,0,1-.27-.65.81.81,0,0,1,.28-.66,1.23,1.23,0,0,1,.82-.24H871a1.19,1.19,0,0,1,.84.25.85.85,0,0,1,.28.65.84.84,0,0,1-.28.65A1.28,1.28,0,0,1,871,2.19Z"/><path class="a" d="M877,9.51l-1.72-6.84v7.41A1.35,1.35,0,0,1,875,11a.93.93,0,0,1-.73.31.92.92,0,0,1-.72-.3,1.33,1.33,0,0,1-.28-.93V1.58a1,1,0,0,1,.37-.94,1.69,1.69,0,0,1,1-.25h.67a2.64,2.64,0,0,1,.88.11.76.76,0,0,1,.41.4,5.65,5.65,0,0,1,.3.93l1.56,5.88L880,1.83a5.65,5.65,0,0,1,.3-.93.75.75,0,0,1,.4-.4,2.71,2.71,0,0,1,.89-.11h.67a1.69,1.69,0,0,1,1,.25,1.07,1.07,0,0,1,.37.94v8.5a1.3,1.3,0,0,1-.28.92.92.92,0,0,1-.73.31.89.89,0,0,1-.71-.31,1.3,1.3,0,0,1-.28-.92V2.67l-1.72,6.84c-.12.44-.21.77-.28,1a1.36,1.36,0,0,1-.39.56,1.09,1.09,0,0,1-.79.26,1.21,1.21,0,0,1-.65-.16,1.27,1.27,0,0,1-.41-.42,3.23,3.23,0,0,1-.23-.57C877.12,10,877.06,9.73,877,9.51Z"/></svg>